# xmcd CD database file
#
# Track frame offsets:
#	150
#	15132
#	29802
#	47081
#	60407
#	72821
#	88809
#	104279
#	122203
#	135423
#
# Disc length: 2046 seconds
#
# Revision: 0
# Processed by: cddbd v1.5.1PL2 Copyright (c) Steve Scherf et al.
# Submitted via: CDex 1.51
#
DISCID=7f07fc0a
DTITLE=Walker Williams - Walker Williams
DYEAR=2005
DGENRE=Country
TTITLE0=I Like It Like That
TTITLE1=Oh No
TTITLE2=The Three Of Us
TTITLE3=The Good Life
TTITLE4=Tequila Sheila
TTITLE5=I Wouldn't Know
TTITLE6=Long Live Love
TTITLE7=This Might Take All Night
TTITLE8=Frank
TTITLE9=I Wanna Thank You Baby
EXTD=YEAR: 2005
EXTT0=
EXTT1=
EXTT2=
EXTT3=
EXTT4=
EXTT5=
EXTT6=
EXTT7=
EXTT8=
EXTT9=
PLAYORDER=
